/* XPM */
static char *_c50e8aa50c74695f6d1cc2876ba02bdUOFpNtcvLxYg4wkV[] = {
/* columns rows colors chars-per-pixel */
"64 64 131 2 ",
"   c #271D11",
".  c #281E12",
"X  c #2A2014",
"o  c #2B2115",
"O  c #2C2216",
"+  c #2D2317",
"@  c #2E2418",
"#  c #2F2519",
"$  c #30261A",
"%  c #31271B",
"&  c #32281C",
"*  c #33291D",
"=  c #342A1E",
"-  c #352B1F",
";  c #362C20",
":  c #372D21",
">  c #382E22",
",  c #392F23",
"<  c #3A3024",
"1  c #3B3125",
"2  c #3C3226",
"3  c #3D3327",
"4  c #3E3428",
"5  c #3F3529",
"6  c #40362A",
"7  c #41372B",
"8  c #42382C",
"9  c #43392D",
"0  c #443A2E",
"q  c #453B2F",
"w  c #463C30",
"e  c #473D31",
"r  c #483E32",
"t  c #493F33",
"y  c #4A4034",
"u  c #4B4135",
"i  c #4C4236",
"p  c #4D4337",
"a  c #4E4438",
"s  c #4F4539",
"d  c #50463A",
"f  c #51473B",
"g  c #52483C",
"h  c #53493D",
"j  c #544A3E",
"k  c #554B3F",
"l  c #564C40",
"z  c #574D41",
"x  c #584E42",
"c  c #594F43",
"v  c #5A5044",
"b  c #5B5145",
"n  c #5C5246",
"m  c #5D5347",
"M  c #5E5448",
"N  c #5F5549",
"B  c #60564A",
"V  c #61574B",
"C  c #62584C",
"Z  c #63594D",
"A  c #645A4E",
"S  c #655B4F",
"D  c #665C50",
"F  c #675D51",
"G  c #685E52",
"H  c #695F53",
"J  c #6A6054",
"K  c #6B6155",
"L  c #6C6256",
"P  c #6D6357",
"I  c #6E6458",
"U  c #6F6559",
"Y  c #70665A",
"T  c #71675B",
"R  c #72685C",
"E  c #73695D",
"W  c #746A5E",
"Q  c #756B5F",
"!  c #766C60",
"~  c #776D61",
"^  c #786E62",
"/  c #796F63",
"(  c #7A7064",
")  c #7B7165",
"_  c #7C7266",
"`  c #7D7367",
"'  c #7E7468",
"]  c #7F7569",
"[  c #80766A",
"{  c #81776B",
"}  c #82786C",
"|  c #83796D",
" . c #847A6E",
".. c #857B6F",
"X. c #867C70",
"o. c #877D71",
"O. c #887E72",
"+. c #897F73",
"@. c #8A8074",
"#. c #8B8175",
"$. c #8C8276",
"%. c #8D8377",
"&. c #8E8478",
"*. c #8F8579",
"=. c #90867A",
"-. c #91877B",
";. c #92887C",
":. c #93897D",
">. c #948A7E",
",. c #958B7F",
"<. c #968C80",
"1. c #978D81",
"2. c #988E82",
"3. c #998F83",
"4. c #9A9084",
"5. c #9B9185",
"6. c #9C9286",
"7. c #9D9387",
"8. c #9E9488",
"9. c #9F9589",
"0. c #A0968A",
"q. c #A1978B",
"w. c #A2988C",
"e. c #A3998D",
"r. c #A49A8E",
"t. c #A59B8F",
"y. c #A69C90",
"u. c #A79D91",
"i. c #A99F93",
"p. c #ABA195",
"a. c #B1A79B",
/* pixels */
"a.<.5.6.<.6.6.9.6.2.t.<.q.5.2.;.B 6.5.2.6.q.<.q.9.2.u.<.w.5.2.,.M t.<.5.9.2.5.5.6.2.u.2.w.5.2.;.M w.<.6.6.2.6.9.9.<.t.<.w.2.2.,.",
"2.~ ~ / R W R Y R I / J Y Y P x x +./ R R ~ Y W Y Y / P Y Y I x l *.~ R W R R R Y P / J Y Y I l j *.~ W ~ R R W R P / J R I P x ",
"<.P J Y I I J P P H R P I R Y d m [ Y J P R P I P J R P Y W R d m o.J P I I I P P H R J I W Y d x o.P P P I I I I D R P Y R I d ",
"q.W J R R W R R W I Y R Y ~ W g Z [ R R W / Y W W Y Y R R W ~ g M } R R W / W R ~ I I R Y W ~ g B } R R W ~ W W ~ P I W R W R j ",
"q.R H P J P J P Y Y H R P H J g S ] Y R J P H J R Y H W P J J j S ` R Y P I H P R R H R J H P g S ` R Y J I H P W I H W I D J j ",
"H e q q 6 q q q : i 5 u e 9 t 5 t l e e 5 9 q e : a 6 i q q t 5 e g t q 2 t 6 t : i 5 t q 9 t 5 t g t e 2 e 6 u : i 2 i e 9 t 5 ",
"+.W ] [ / } [ ` u  .~ ~ W ( [ ` ] o.~ ] / ] ] ` u  ./ / ~ ( } ` [ } ( ] /  .` ] u } ~ / ~ ( [ ` ] } ` ` ~ } ( [ i } W ( ~ ( ] ` ",
"R J / W J R Y H 2 *.] R I ~ / Y R ~ D ~ R W P S 2 =.] R P ~ ( R W Y I W I / H D 2 $.] W I ~ ( Y W R I ~ I ( D D 2 *.` W P W / Y ",
"I W P R I P W B < 2.Y R W R J W J R Y ~ Y I R M 2 5.I I Y R P / I P ~ R I W I B < 5.J R W I I W Y P ~ W I Y J S 5 6.J Y Y I I / ",
"I R P R I J R M > 2.R P P I P Y R ~ Y R R Y W B : <.W Y I Y J I W R ~ R Y ~ I S : 5.Y Y P P I Y W P Y R R / Y H = 2.R R Y I P P ",
"Y R Y ~ R I R D 9 5.( I J W R Y I W J P I P I M 2 2.` R I ~ R I Y R I P P R P B 5 6./ Y I R ~ I R Y I J I R P Z 2 5./ W Y R W P ",
"x l x m m v m j 5 ( Z x l M m v d Z v x m m M g 5 ` B x j M B v j B m x m M m j < ] M v x m B l j S M v v m v g 5 ] m l x v Z v ",
"g e e a i i u t 9 M t u i a u q * a i u i u a t 9 B t e u i a t = d i u a u a u 6 Z e t a u a e $ i i u a a g i 6 S 9 t u u a t ",
"i.=.=.;.;.;.$.=.=.2.@.=.<.;.$.[ P =.=.@.*.+.$.*.=.<.@.=.<.;.$.} P ,.*.$.*.o.*.*.=.5. .*.;.*.;.} H ,.*.@.*.@.;.*.*.2.o.;.<.=.=.] ",
"<.R Y I I W J Y Y Y P P R Y J x l ] / I R I Y R P Y P I W Y J l j } W Y W P W Y I R H I R P I l l  ./ I ~ J W J J W J Y W I I j ",
"9.~ I I Y ~ P W I W W Y I W I j B } ~ J R Y P Y I R W I I W Y j M @.R I W J R I J ~ R R R R R g x +.W I W P / P P ~ Y Y Y Y R j ",
"5.Y J I R W J W I J R R I ~ W i M ` W I W Y R R P P Y W I R ~ u x ` / J I Y W I P I I Y P W ( a v ] / J I Y W Y I I I R P R / i ",
"<.R P I P I H I Y I P J D H J j S ` W J P J P P I R H P H S P l S ] W H P J I H P R J P H D I g S ] ~ J P J I J P W P J D S P j ",
"x < < < > < = < o 6 : 2 5 > < 2 < t 2 = : : > = o 9 = 5 2 = 2 2 2 t 2 > : = > :   q : 2 5 > 5 : < u < : > : : :   9 : 5 5 : 5 > ",
"6.*.*.;.=.=.;.=.m =.o.@.=.*.+.;.,.5.*.$.=.=.,.@.x ,. .$.,.+.$.;.<.2.*.=.;.*.,.$.x ,.o.@.,.@.$.$.,.2.$.*.;.$.;.$.l ,.o.@.;.$.$.*.",
"P H P Y I P P Z 2 $.( R / / Y R P Y D P P I R B > =./ W / W R R I I D Y Y J Y S 2 ;./ R ~ W R Y P P D I Y J I S > ;./ R ~ W W R ",
"I W R / R I R Z > ,./ J J R P I R R Y W R R W Z > 2.W P P I Y P W W Y ~ W Y W S > 6.W H J Y R P W R I ~ W Y W Z > 6.W J H I R I ",
"P W I R P P R M 5 ,.R I P R R W R Y P W I P R M < 5.I Y J Y ~ R Y Y I W P P R m < 5.I I J R / R Y Y Y W P I R M < 5.Y Y J R ~ R ",
"P / P Y J I ( B 6 ,.I W I Y P I R I P ~ I P W Z 6 <.P ~ I P Y P I Y Y R H P / B < <.P ~ Y Y R J I R Y W J I / B 2 2.I ~ Y I Y J ",
"j t j j t d d t 9 ( l d a d g d u x a x u a a i 9 / l a a d d a u x a x u i d a 9 / l d a g g d t x d x i i d a 9 ~ v u g a j d ",
"P v S D B D D S g ( B Z D B D Z q B v D Z S Z Z g / M Z D M D Z q Z m D B D Z S g ~ B Z S Z D Z q B m D Z S S S g ~ S B H M H Z ",
"q.[ }  .] [ [ [ ( +.` [ o./ [ I B +.[ [ [ o.` ] ( +.` ] o.~ [ Y M +.] [ [  .( } ( +.] [ o./ [ Y m o.] [ [ } ( [ ` +.( }  .( ] Y ",
"9.W Y ~ Y I P Y W Y W R / J R g m +.~ P Y W J R ~ Y R I W H R g m +.~ J I W J W W R Y I ~ H R j x +.W P I W P R R W P W Y I Y l ",
"6.R J R Y R R ~ I P ~ P W R / a x o.R H I W P R I P W J R Y / a x o.R H P W P W I P R P R R ( d m o.W P I ~ I ~ Y I Y Y I ~ W g ",
"6.R P Y I R I Y P P W P P W Y d M [ Y Y Y W J P I P R J J R R d M } Y I I R J I I P W P J W R g v [ Y I Y R J I I I R P H W R g ",
"=.J D H Z H Z Z H D J D M J M g S ~ H J D H S B H D H D M H M d S ~ J P D H S Z H D H D B J M g M ~ D J S S Z B H D J D B H B g ",
"j = * = * > : = = * $ < $ 2 $ = > 9 @ : $ : : : * $ $ < * < @ = < 6 @ : @ = : : * $ $ < * 5 $ = < 6 * < $ > > > = @ = = > > * = ",
"6.<.6.w.6.5.6.2.g u.6.9.6.5.9.2.2.6.<.6.6.5.6.,.a p.6.2.q.9.2.9.2.9.<.6.9.5.9.,.i p.6.2.w.6.2.9.<.9.5.6.6.2.9.<.d u.6.6.6.6.q.2.",
"R I I I J P J B < ;.~ R P I Y P R W I W Y I W S : <.W I Y I P Y R Y P R I P Y Z > <.W I R Y I Y R R I W I J I Z < =.~ R I I R I ",
"/ R R R R ~ W S < 6.I Y P I R Y Y I P R P P W B > 9.I P Y Y Y Y Y I P R P P W B > 9.P I Y Y Y Y R I P R P I ~ M < 6.I Y P Y W I ",
"I P I J P Y Y M : 6.J W R R ~ R R I I ~ I Y / B = 6.J W R R ~ R W Y Y / I R ( Z * 9.J R R R ~ R ~ Y I ~ Y W / B = 6.J W R R ~ R ",
"Y R / W I R Y Z 5 2.P Y P H P J I Y Y W J P R M 6 2.P R J H P H P Y I R J J Y m 6 <.I R J H I H P Y P I P P Y v 6 2.I Y P D I J ",
"6 2 9 e 6 9 9 5 * H u t e q u t > t q e e t i 6 > D i u e 9 a t : e e q t e u 6 > D i u e 9 a t : e q q t t i 6 : J i e e q u u ",
"} / ~ ] ` ( [ [ ~  .` Y ] / ` ~ v ( W Y ( / ( ( ( ] ` ~ / / [ R v ` ~ R ] ( ` ` ( [ ` ~ / / [ R x ` ~ W ` ` ( ] ~  .` R ] / ( ~ ",
"<.` W / W I Y Y / P W J ] W J m m  .( Y ` R I ~ ` H ~ P / R R x m } / I / R P W ` J W P / R R x v } / I / I I / ( I W J ( W J v ",
"6.Y I ~ Y R J W P I W H R J P j m o.Y R / J W Y H ~ J I R J I j m o.Y R / J W Y P Y W H R P J l m +.I W ~ I R Y J ( J I R H Y l ",
"5.P H I I Y P W Y Y R I / I I d x ] P P W H R I Y W I R W I P g x [ I J W H R I I Y R P ~ I I d x [ J Y I I Y Y I ~ I R W Y I j ",
"t./ I Y I W Y R W Y P I R P I j D } R I ~ Y ~ R W Y P Y Y R J j D } R I W Y / R W Y P I W P Y g S  .I R R W W W W Y I Y I W J l ",
" .S v m x v M l v B l v m x Z i v P M v v l m v v M x m j Z v d v P M v m l m x v B l v m l Z i v I v M x v m v M m v m l B m g ",
"l e 9 u e u d u $ g e u e q d e i l i e t e t q * i t i 9 a t t i j i e t q t q $ d e t t 9 d e u l t u q u e e * a t u 9 a u e ",
";.*.$.,.$.$.2.o.x 5.$.=.=.@.*.@.;.;.;.=.*.=.=.@.x 6.$.;.@.=.@.$.=.,.;.*.=.=.;.@.v 6.*.=.=.@.=.@.=.,.*.;.@.,.*.@.x 6.*.,.$.;.@.$.",
"R R I / P P W M : ,./ R / R R W R I R R Y W Y H : 2.R ~ W W R W R P R R Y W Y H > ,./ Y / R W W Y Y I ~ P ~ P H = 5.W ( / W W W ",
"Y Y P W I I / v : 6.W Z I I I R R P W R I R J B * t.J H P P Y R W P W R I R J B : 5.R S P I P R R I I ~ J ~ H Z * t.P J I P Y Y ",
"P ( J P R I Y B > 6.I I / D W R J ~ D W R ( Y Z $ 9.H Y R I W Y Y Y I R Y ] J D $ 5.Y Y / J W P Y R I R Y ` J S @ 5.I I ~ H W Y ",
"J / P P Y J J B e ,.I P Y H Y P P ~ H P D P H M q <.P Y J P I P I R J P S I S B e <.Y J Y H Y H I R P P S Y Z B q ,.I P I D I H ",
"* < * > < = < = O g < < > > < = O 9 > 2 : 5 < < o x > 2 = 5 > * @ 5 < < = 5 > 5 @ l 5 : : : 2 * O 5 > 2 : 5 < 2 . l 5 < > > < * ",
"2.=.$.;.;.=.,.;.;.5.;.=.*.;.=. .D @.o.*.@.$.$.*.=.5.*.,.@.2.;.o.H +.+.$.+.*.@.=.=.5.;.*.$.,.;.o.D o.+.*.@.=.@.*.=.2.;.=.*.,.;.o.",
",.~ I Y I Y I P R D J P J I J l j ] / / W W I W Y P J I D W P l l ] ~ / W R I R Y D I P J R I l l ] ~ / W W Y W I H I J H Y I v ",
"w./ R W Y W R Y W J R R W R R l m  .R Y I I J R ~ I Y W I ~ Y j v +.Y I P P I R R P W R ~ W R d v  .Y Y I P P R W I W R R W W j ",
"5.H J R P Y I R I I I Y ~ J R d m  .Y P Y ~ I ~ Y R I Y P I Y a m @.P P Y R R ~ I Y Y I R J R i m @.P I R Y R W I Y R I R J W d ",
"9.P W ( I Y P Y P W R I ~ H ~ d v  .Y I W ~ H P P ~ P I I P W g x @.J P ~ R I J P W Y J R H ( g x @.P I / Y I J J W R I W J ( g ",
"[ Z d d g d g g l d x t l j g t B B m j g j j g j g j i d l i u M B m j d d g g g d g i g j a t m m v j d g j j j g j a j j d t ",
"J v l M B B B m 2 M S v B v B v B B M m M B B M 2 M Z B m M M M B B B m M B B B < M Z M m M M M B Z Z M m m M v < B Z M m m m m ",
"[ ` } o.} [ [ ( u ;.+. .} } +.}  . .} [  . .} ( t ,.o.o.[  .+. . .o.} }  . .} ` t ,. .o.[  .o. .}  .} [ }  .] ( e ,. .+.[  . .o.",
"R R ~ Y P I P S 2 5.I Y Y R ~ I W R Y Y R W J Z < 2.Y Y I R ~ I R R R R W W J Z > 5.Y Y P Y W P I Y Y Y R W P S > 5.Y R I W ~ I ",
"Y I Y P J Y Y Z < w.P I P Y R J P J P I R W P S : q.P P P P R P J P P I Y R P Z > q.P I J P R J I Y I I Y R J Z : q.I Y I I W J ",
"Y Y R R Y W Y B > 9.W / Y I R R R W R Y W W I D > 6.~ ~ W P ~ W Y R Y Y R R P D > 6.~ W W P W W R W W W W R I D = 5.~ W W P W W ",
"D Z S D S Z B j 2 +.S D D B S D D D S Z Z B M v 5  .H S J M D D S D D Z Z B M v 2  .H Z J m D D Z S D S Z S Z M 2  .J S H m D D ",
"> $ = : * : > = @ x $ $ > > = * $ * = * * : : = O l * o 2 $ > * $ = : * * = : : O g * o 2 @ : * $ : : * * = = = @ l = o 5 $ : * "
};
