/* XPM */
static char *_bfa39d759df41eab5547944139b7841dJmUn9TUK5TokB1H[] = {
/* columns rows colors chars-per-pixel */
"64 64 29 1 ",
"  c #6F746A",
". c #70756A",
"X c #72776A",
"o c #73776B",
"O c #72776C",
"+ c #73776C",
"@ c #73786B",
"# c #73786C",
"$ c #777B6E",
"% c #81846E",
"& c #82846E",
"* c #83856F",
"= c #84866F",
"- c #838570",
"; c #858771",
": c #878872",
"> c #878972",
", c #9B9B84",
"< c #9B9C84",
"1 c #9E9E85",
"2 c #9E9F86",
"3 c #9F9F86",
"4 c #9FA086",
"5 c #9FA087",
"6 c #A0A086",
"7 c #A1A188",
"8 c #A2A288",
"9 c #A3A288",
"0 c #A3A389",
/* pixels */
"*;688883368844-8;3%;..*$ ...$368>=8888888333***8343*66888868883$",
";*;8883 #886>3.3*=*4..>6.;=>>8883>8638883$  *;*8-***3388683683$3",
"6*;8684#$8883.  .=;3;*>8$66688886863.38888O$$8>3=*;**;33>4$33O,3",
"6;>6>8884888*#...*6*=>6606$6868888>.. 386888364-;;3=*4 *6*3. .#O",
"8888888<O386>8. .@=*>4;8883*3*6664*....3;88888;*83-**...=.   .48",
"8884883. O3466*$***;6**886.** >68* .....8888866*6-**=...=.. .#48",
"38,#88<... $84;3***;3**888...>666>....$888388;**4.-**...6>$ .483",
"$3 #68- .#$8883;*===;*;866.>>66;88>.. 8886.388***  .*...333$.86.",
"4< #$84.#4388886>;688;>6O..888*;888O.$688O$.88. ....  ..OO.3.3$.",
"##$3843...@48888888648446.#438;88888;388888888O ......$O68>#$.34",
"48<$3$3.#..$8846883.@3 *...#.68368888 38668888$O.$$6..36833888.@",
"#3#44<#83.$886*;83.O* . *-.3*$3$;8888..68>666868$66>..;88O-684@3",
" .... #4348863=>8688.$%..O3..68888888...88***=863834$.366.=34..$",
"...O*@...>88-;666;8886O;8.$8O#8888886...38*;;68;.8#O...6>*3*--*3",
"4..#.6  $884**>888688888866888888688O$ .**;3**688888$6886>**$.. ",
"83$3$4 $8883=;8883O888883O6888886;6886.;.;6;**6886868868;6;*3-3#",
"$85883$8606.3>886@.6883*...468866;%04>60886*=;68;-*O38;68;3;***.",
"83#88883.4. @48886.O83 *...$886*6%;66000886;;8888. 38%38;*;6;;>6",
"88888663......8888....  ..#888-*&;;%;66688O868888O#8;-686 4.36=6",
"888883;3.....@88883 .... #6888-*&&%*=*6*6..86 .68.;6;8>68#.. -=8",
"643386;-*  ..*;684.....@$6..3=6*o&..***;8.$3..6688;;68886-$..3>6",
";;3$884**.*.@**;4#....@6666...**.... ;;46.6.. ..38888886;*3O..68",
"**$,#86****;**;888@...*>;3...***o...;3;8$....$.O8683883*88888888",
"***.$86=**;6=;888888...3*.....*==&;.*;8868...8883O%-88;;68886888",
"3**>8884;-;*888888883.4....$..;=6;%;&;96888.88.6.*.*686>8388;*68",
"4**>88883;6;6*6;8884;6....=6.=6;6&>6;600683 88O...**88886O88=*88",
"86;6888888886;88888*;-#..O886;889;00>666.8.O68#8;;;;6888O.36$388",
"#6884888;8884;88886-884 ..8888880696800...8888;6;6886=88#. 46838",
"..#3 #8888683-86.86>884#.O88883.8880886...@86;*;6886$ 368...O..3",
"4$3$4>8884-.-.86 @888888.8888.8.8886886O .68888888O... 6..*.38#.",
"33$4688888*-.... @68488608886.6886=;0600@88888888O.......;**3#.8",
" #3.88888884........#48-8886....6;;60006-888O68888@.#6...*=.   3",
".;888888600606...... $888886O...06888868606...669706600+.00+..+o",
".;888883+60067%......888888888-.6..888;8;06...;%6000076760600.68",
"883$3 ..+06;8-6-* >88886>63668.8..6O8888;6+.;&;90666096+.6608886",
"8863. ...+066;7%..888886*;;-  O8....8888&o&&&;&&6;6;60+....7888O",
"6$683 .+0688=&=%.;;4$66>666.O.88..O.8886&;6-=&&=;66007660+...;%.",
"8883.O3O6o886;%;>86...86=;3O38.8..6.886;;7=&&;.&&0;660;&60+..&;.",
"883$3 O+6O6;%%;%%;6..O886-88$6$687886=8867=;...;606000;;608.%=.6",
";8836O6O8876;%%=*;6....88888663;88888;88;=&...&=;0;60696;8+&.=..",
"3-*;88686O86;*;*;88 ....888868;6887.6;6886%;&;.668688888=6;....6",
"*-;883O8886;8688886O6..O8888..6;8888;6087;&&60;0;8;88888O.6+....",
";88886;;8888886.O6O.86O68886..86;8880060;706;&&;.860888.....6.66",
"888886*=8886O86...88888066;;88;;%=886000070.6;60..O688. .&.6$..6",
"888886**;88866..%O88888O6>68.=>6%;60607.6006o77.....388OO660..66",
"3#86883*;8886...-.88O888886..*=8%%;0;0..o%77607......888888...67",
"3 .$886*;800866.;6886888886..;..+76660...77o;07...O66888886;..67",
".  $883*.+06006;888886;88886......006...7.77.&60$68.O688;8;--888",
" .@>4*>% *==;6;60606;;;;6886.....&6;8.....o06%68.606o700600;%66+",
"..*;3;3*..;4=;6;:06;066.+0886*.;;=;6868.8860;;8860;860600660700+",
".***>*=....$%*=;66>666..O68;8***&=6888068860..8806600660$60088;.",
">3;3**=*.....=%*&;06006..;886**-;&;8886688.=;.66000600;0.=66;===",
"******.....&*;6%&-=;076.o6888=*6&&68066$88..;.;;;6888+.+%-68686;",
"******....+6;*;%;86076..+888-=*;&;-;6;0088=;..%.%888.;..-%;78886",
"64;4* * .o&;=%%=;6886+...886***=.;;660006;&-....;8887O.%.-668888",
"4=*****-6+6-%o%;888876..$66;6-6...68006606=......68886;%%=;88888",
"606%%%%;-.:6.%;6;606006.6808;%;...;=888888%%.-%.%;;8886-6;=o60;6",
"06&&;;6%%....==;0006.$008886%=....86888.788768;.-66888;8;%=..-60",
"06606;886..O6766;&;...0687;;6=%..68887$.88$.7OO66;8888686;o..606",
"00766;76....$6o0066&.67088669%;&;=88.O.688378668868888;8+.....+6",
"6+6$6;6O....+7.7$606;8887+88:6=;&-7O..O8;88888888888:688O...-..+",
"6 ..$8673...6886.006=8886.+7.;66;&86....888.86;-88886888668...66",
"6...$6883O6688;6.06=%;;06..+.O;;&&883...$6868:-%;8;8;;88887O.678",
"6...+887768886-8;6;;%=%;8-...866&;887768688886;6;-6;668888733888"
};
