/* XPM */
static char *e9e09dfcd41b43ad8d36ceea8109d736NGTq82ZjH1TyR1r4[] = {
/* columns rows colors chars-per-pixel */
"64 64 39 1 ",
"  c #005F16",
". c #00551A",
"X c #00541B",
"o c #00561B",
"O c #005A18",
"+ c #00581B",
"@ c #005A1A",
"# c #005F1A",
"$ c #006215",
"% c #006614",
"& c #006416",
"* c #006B13",
"= c #006916",
"- c #006E14",
"; c #006E16",
": c #006219",
"> c #00601A",
", c #006619",
"< c #006818",
"1 c #006F18",
"2 c #007012",
"3 c #007713",
"4 c #007017",
"5 c #007316",
"6 c #007516",
"7 c #007417",
"8 c #007B13",
"9 c #007C13",
"0 c #007916",
"q c #007B16",
"w c #007E15",
"e c #008312",
"r c #008513",
"t c #008613",
"y c #008214",
"u c #008912",
"i c #008813",
"p c #008C12",
"a c #009210",
/* pixels */
"r:#ru:@5y,:400066:w6:;w#;a=#,08:,00i<44<u:,u@#ut#@6y:#70w666:t;:",
"w5#;80#5=:=@10<#@:06:00:,6r,&0@=##65:#>76,,w1#;e5:6,,<@46,#@,65#",
"06#@;6&*,:u;#7#4w:56,w0,#:6<=5#0e:=,#a#1;=w05:@5;&;=%t&#7#70<*51",
"1@6:@=#@=:66#4<t;#&:w0#,;@&,@&&16,,,y0##%501.6:@;#&&:06:44t;:&,0",
"@:66:.65#:*56@5;&e=:6@@5;4@:0::%;8:#7*;6&1,.,0;#.0;:&%66.5;,y=:6",
"5:=05:055e&*==6%=66#.5,#0y:60:u4%*=5;&0w#@:1:<w1,0;6y&==%3&=04:o",
"y,,5556#=ww@.#&@,;1##60#=656<#0y%.@ @@26##,t#%5560@;w0..:&@=6<:#",
"0:#X;w*::;0,#:80&*1#*6;#@@e;%:,05::69,*6#&10##.60*#:60::,w6&*;::",
"56:u;#o#65,:tw,1:%5:&*0,5u&.@#r,#6r;1:&*=:=64:a=#.#61:,u6=<,%5#%",
"2616t<###06:00@0;&;,&*05;w6##:,u#10,=w =;:;20%7t:###y;,66#w<=5,&",
";68,5e,#,04##<;w1#5,#&506,y6##00,:=,y0#%1%@*0e#6t:#105#:<4w<&5,@",
" *6:,04#400t<516:# ,5#%*=:0w##06u,;10&##:5#&;;#10;#;00y,644:##,5",
":@@,#1<:;5*0yw5Xu4@696@@,#,7#,0*;u6r.5e@,0e:@@,#6,#15*8ey;@u&.0y",
";,r0#@#:**&,15&:07#400#0e,#o#=*%#6,;#;0,,00%,u6:o:&;= =,5:,65#60",
"=:66,t5&*&:,,5&:<a;:*5#<011t:*=@&%<;#@ur#4;,,5;<p=&= ,,,5&#;a,,=",
"&#@51%5#.#r,,6,#<6; **##:0:7;..0w@76##00#%*&#@6<10@.:u:&6,#10%&*",
"@y;#;,6:#6,#,5=<,0#,@@,r#1#7<:,6##6%1#6<:#@@u<:,;1##w:#<;=,,6#,X",
":5;##w650o50#.<e:w600%=0##<p,y:#e,#.r1<r595#6=:#r605@74:o6w:t5w8",
"180,<q%7y<00#:;0;1y6t<004:0;,0046,#,00:0ew556w#;0,6y,q4#:50,5r6y",
":=5,07::4=6,#00,:#0#:<**140,#<44<:,e1##;1.1%=5,5;#:6,4<#w0:#:0@,",
" *&:<o1p1#@,;0#0r#:,#@%%&,@#u0@#:461#a<#,:.:;&:,@6u=#o440#ye#::@",
"1#.04>:7e,#0re;0w,1&@#1@,w:#=e6#<ttw<w0,5@#5@ow;#:0e::yte,ww:5:#",
"u,#5t,:16#::601,,:w0#yw#%yw:<0:::400:;@5y:=u,:4t,:6;:::40<=,:w6#",
"00#&6w:5<:r:#6#:5:64,w0%#=w==0@81o;,#6#5;<006::00:5,,y#:5:,;:56,",
"6:,@ ;:&&:00:;:e5#;=70<::@1,:*#5y:,,4t#,%;06::o&;:%%,w6#1:r5:=;5",
":#y,#.,:@:*0,:10,4 :0,#47:X#=@@%64##y5<:&51#:r:@@,&O&*6,:66=;:&0",
":#;r5:y660%*3&0;=w6::::%0r:6w,u%=**6*&6u@,#::5r4,y506**3,0*&y5::",
"u,,61:0:;r=OO:*@<51##w7#56#51&0w:@&%%.00:@,u#<6<,6#;r:O@:=@;51#@",
"0,# 3u*,,0t<:#::&=;#&51##&u0=:5w0##:%#<6#:;0:# we;#=0t:##,:&=,:%",
"61#6==@#<=4:w,ty&*5:*;6:%;; #:15,160i1*;,&*6=#0%%#:,<5,0;ew&*5:&",
"*6:0e.##<w%:0to:#&*,&*0%<u,:##05#5y<@&O*;#%51:ywo##=w:,ww.&#%;,&",
"50r;0e:#,61:47,p6&5,# 6w05t,##;w#,5,er#*5# 50t,w0:#,01#45;r5&5:#",
"%;6:<w1#;0w5@:,0,:&,5&*6=#0e##00e@# 06#&=6:=*6#,y4#10e;@:%6,:=,5",
"@&&#:61#;6;eyr0#6:.16: &##16#:0;3u0p::;.:65.&%#,0<#16;uwi4#5:.66",
"5@60:,#:5==5;5&:w6:50e@=r:::#=;*=0<5#5y:,085@w7#,#:5;%546&,w5#40",
"%,w6#5,%=%.#;1&#4u,=55:60,=6#*= .1<;#:y0#65&%06:0%&=%o#,6,#1u:46",
"&##5144@&@e&#6%#;w1%=*#@5w,0:#@,y.=;##y6#**&##046;@&@e:#6&#5w1&=",
"#5::1:w,@56:;6&#<0,o&#:5.;:46#&e,#w;##04#@&#6#,<:w#@w;#;6:#;7:@&",
"#0;:<w;:,:#,:@1y@r,w:#<y:<<u@<:@4#&.p,<w=5##w;:,t,,,#:,:@69#r,8:",
"<06,:01wr:ye##<0,6i0a<071#401t6;t<#:05,ytu0106#,01yt:tw##;0,6uwu",
"%15,;0#;0,0;:4w4,:0#1,=*5:0=,65;6,:y65#51#5&*6:77#50,0;#605,,0#5",
"&=*,6,,6::#@:7<,6:1,@:*;&6,:0<::@#<1@0:,1##&=%<6:,5,::@:6,,1#1:@",
"#&X,@@=wy:#ypu:ty,::X&&@#,.#6u,#;pa1;y0#:o##&o%@#<e0##upr#re::#.",
"r&&wu:#18,#10074;:y6:60#;u5#,06:,60y,0,1t:&u@:tu##00:#;0w565:t4:",
"00#=0w:6&:6@,0:@#:56#50,&5e,=6@6,@04@#@55,,06:=w0:6:,5@,6:@#:55#",
"0;#@=6&%=:y5#;:00:55;w6,##5,%1:1r#<<:a#5;=y0,:@=5:;%,e1#5:w6,555",
",@w:@&#X&&66#<,r;:# y4@;6@#:@&&%0,,,t6:@&66,#w:@&#@&,65#11e,:&:w",
"#:66%@ww,==20#6;&e5:4@:=60@,y,6%=9%,5=;r 1,@,66,#y6%==*0#5=:t;:;",
"0:,0;:0=;u& &:5&=05#o0=#00:55&y6&&&;*@wy#@=0:<w=,0&1u &&,;&;6<:.",
"w,:;6w6:10t#.:@@&;;#:56#&506,#6y5X#@.#=*##=w::=066#50r@@#O@&;;::",
"0,##%6%##16,,:re&%4:%55##:0;&#:0;::wu==5:&;0:::=7%#:10:,&rw&=;:&",
"56#t6@@#50::ry:&#&5:&*0,;r&.##u,:6u;::&*;#=64#u;@o#56:,ue:::%5:&",
";005e5:#:06:00:u5&;<#*0050t###=u#10,7t:=1#&5666t=:#@w5,67:u1%5: ",
"*30:1e<#,00<.:40;#*=&%265#ww##00;@#:w0:%51#*6w:;y,#106:@:1w<&5%:",
"@**#,01#56*r4y4<,#.,6#&=&#60#:06e66w4<:@#6#O==:<01#102r6t1<,#@<7",
"=.:;#1,#56;006;:r5#60w@@5#%1#,6=;r58.4y#%0w=@,<#5:#65=w60=#i<#6w",
"<,t0###&=%&#;5&:4w:174#6w,##:=%&.5,2#<01,06%,y6:&#&;=@,<6&:40:40",
"<#16<y;:&&,,:1&#1p1%*;#,651t#%%@5:=*##pw#%=%:40<e;$%O5:#5,#5u<==",
"&,#<1,0:X:e:,0&:<0=@*%:,#6#55.@y5#0;##06#&%#,@1<,6#.=r#16&:16=@*",
"#w4:<51:&5##===1:w:5.@=t#1:w:#<,##;&0,15<%.#t<,,64##6@#=&;;:w#6.",
":65##06we:0w#o,w:0w6u%=0:#<r<u<,i,@#w;,r6tw:01##w5yw@y0#@40:e00u",
"=60,,0,60,06:,604,w1w,855#05<0740,#400:6064550#10:00,05#,70<=y;w",
"&*;&05#,,,;#:06:::6:#,%*,56,::,1::<w,::,1o%&=*,01::;:,##y4:#:6#:",
"#& ##@;u6#:60y.wt:@#@#&&#:o:tu##,wy<:a;:##o *###o6t5##0ww@yt#@:@"
};
