/* XPM */
static char *c70ffdc206a64a3cff273068e565d297gBHGaLeAJFIHCWLU[] = {
/* columns rows colors chars-per-pixel */
"64 64 247 2 ",
"   c #062A5F",
".  c #012B6B",
"X  c #052A68",
"o  c #04316D",
"O  c #0C346C",
"+  c #0A3568",
"@  c #143B6D",
"#  c #1A3D6C",
"$  c #143867",
"%  c #012E72",
"&  c #032E79",
"*  c #043375",
"=  c #0B3574",
"-  c #0C3A75",
";  c #04357B",
":  c #0A357B",
">  c #05397C",
",  c #0C3C7D",
"<  c #063975",
"1  c #123B75",
"2  c #1B3D73",
"3  c #123D7C",
"4  c #183C79",
"5  c #1C416C",
"6  c #0D427C",
"7  c #1C4274",
"8  c #14417D",
"9  c #1B437C",
"0  c #244B7D",
"q  c #244678",
"w  c #2A517C",
"e  c #23446D",
"r  c #043581",
"t  c #0B3782",
"y  c #053C84",
"u  c #0C3D82",
"i  c #0B3D89",
"p  c #063C89",
"a  c #123D82",
"s  c #123E8A",
"d  c #103786",
"f  c #1C3E95",
"g  c #0E4183",
"h  c #0D428B",
"j  c #064185",
"k  c #134284",
"l  c #1A4484",
"z  c #1C4984",
"x  c #14448A",
"c  c #1A468B",
"v  c #15498D",
"b  c #1C4A8C",
"n  c #174985",
"m  c #1A4692",
"M  c #1C4C92",
"N  c #154992",
"B  c #1C5194",
"V  c #1D529A",
"C  c #144A90",
"Z  c #234B84",
"A  c #224D8B",
"S  c #264A87",
"D  c #275289",
"F  c #35588A",
"G  c #214D92",
"H  c #244B99",
"J  c #245294",
"K  c #2C5494",
"L  c #25549A",
"P  c #2A559A",
"I  c #2C5A9D",
"U  c #295998",
"Y  c #315594",
"T  c #335A94",
"R  c #345B9C",
"E  c #395C9C",
"W  c #385A96",
"Q  c #39629A",
"!  c #3E618D",
"~  c #2D5CA2",
"^  c #2B56A3",
"/  c #335DA2",
"(  c #355DA7",
")  c #2D61A2",
"_  c #3462A4",
"`  c #3B63A4",
"'  c #3A65AB",
"]  c #3B6AAC",
"[  c #3664A8",
"{  c #3D6DB1",
"}  c #3964B2",
"|  c #45699B",
" . c #517298",
".. c #4165A3",
"X. c #426AA5",
"o. c #436BAC",
"O. c #496BAA",
"+. c #4B73AC",
"@. c #4772A8",
"#. c #5476A9",
"$. c #436DB1",
"%. c #436DB9",
"&. c #4472B4",
"*. c #4B73B5",
"=. c #4B75BA",
"-. c #4D7ABC",
";. c #4675B9",
":. c #547AB4",
">. c #537BBC",
",. c #5A7DBD",
"<. c #5679B5",
"1. c #667EB0",
"2. c #4E7BC1",
"3. c #537DC2",
"4. c #577FC6",
"5. c #5C81BE",
"6. c #5981B7",
"7. c #5581B5",
"8. c #6C87AA",
"9. c #6986B7",
"0. c #748DB4",
"q. c #748DBC",
"w. c #7688B6",
"e. c #6C93BA",
"r. c #7994BA",
"t. c #748FAD",
"y. c #5C83C4",
"u. c #5A85CA",
"i. c #5D8ACC",
"p. c #5684C5",
"a. c #5485C5",
"s. c #6389C5",
"d. c #6C8CC3",
"f. c #638BCC",
"g. c #6689C8",
"h. c #748DC6",
"j. c #6C93CD",
"k. c #6F91C1",
"l. c #7B94C4",
"z. c #7D99C6",
"x. c #7294CC",
"c. c #7C9BCC",
"v. c #7696C9",
"b. c #678CD4",
"n. c #6B93D3",
"m. c #6895D7",
"M. c #7499D5",
"N. c #7B9CD5",
"B. c #759CDB",
"V. c #7799D7",
"C. c #7EA4C7",
"Z. c #7CA2DD",
"A. c #7CA0D5",
"S. c #739BE2",
"D. c #79A2E3",
"F. c #839DBC",
"G. c #849AB9",
"H. c #88A3BC",
"J. c #829BC5",
"K. c #839CCB",
"L. c #879AC9",
"P. c #859CD2",
"I. c #808DC1",
"U. c #8BA4CC",
"Y. c #88A5C7",
"T. c #94ACC9",
"R. c #99B3CC",
"E. c #85A4D3",
"W. c #8DA4D4",
"Q. c #89A5D9",
"!. c #8CAADC",
"~. c #87A8D8",
"^. c #93AAD4",
"/. c #94A9D7",
"(. c #9CB4D5",
"). c #93B4DC",
"_. c #99B7D9",
"`. c #8DB0DD",
"'. c #A5B4CA",
"]. c #A3BADD",
"[. c #A9BDDD",
"{. c #A6B9D7",
"}. c #B0BED8",
"|. c #82A6E3",
" X c #85ABE4",
".X c #8BADE3",
"XX c #88ABEB",
"oX c #8DB2EC",
"OX c #8DB1E3",
"+X c #9BB6E2",
"@X c #9CBCE3",
"#X c #9BBCEC",
"$X c #94B6E8",
"%X c #98BCF4",
"&X c #8FB1E9",
"*X c #A3BCE3",
"=X c #A4BDEC",
"-X c #A5B9E3",
";X c #A3BFF1",
":X c #A3C2DD",
">X c #ACC3DB",
",X c #ABC4D9",
"<X c #B7C7DA",
"1X c #9EC2EC",
"2X c #9EC1E5",
"3X c #9DC4F8",
"4X c #A4C2E5",
"5X c #ABC3E2",
"6X c #A4C4EC",
"7X c #ACC5EE",
"8X c #AACBE8",
"9X c #B3C5E2",
"0X c #B3CCEB",
"qX c #B7CBE6",
"wX c #BAD1E8",
"eX c #A4C4F2",
"rX c #ABCBF3",
"tX c #A3C5FB",
"yX c #ABCDFC",
"uX c #A8C8F5",
"iX c #B2CCF3",
"pX c #B4C9FA",
"aX c #ADD2FD",
"sX c #B2D3F4",
"dX c #B4D4FD",
"fX c #B6D9FF",
"gX c #BCDCFE",
"hX c #BBD4F5",
"jX c #AFD0EF",
"kX c #B9E1FF",
"lX c #C4CCDC",
"zX c #C4CFE5",
"xX c #C8D7E9",
"cX c #D5DBEA",
"vX c #C3DCFE",
"bX c #C5DAFA",
"nX c #D1D9F3",
"mX c #C4E3FF",
"MX c #CAE4FF",
"NX c #CBEAFF",
"BX c #C8E4F7",
"VX c #D6E8FA",
"CX c #CEF1FF",
"ZX c #DBF2FF",
"AX c #D4F4FF",
"SX c #E5F7FF",
"DX c #E8F0FA",
/* pixels */
"; y ; u * , < 3 o 8 b k k * ; p i y l K Y K S l S a a X k , * - y r * b O @   e $ 5 + + = - . n = 3 : u d d s : = Z 9 D n b H f ",
"r k k : - - 8 - 8 K 8 b * M ; y r h J E ..E ....s G P s x , 6 k , s 8 o q q @X@X2XY.jXaX7 9 z + 9 o a s & : r c M Q U Q U R ^ f ",
"x t t * l 8 8 o O < 3 - M u a t x U _ ` W Y Y Y ' / c ; t , 6 o 4 + $ )._.mXMX8X8XNX:XjXjX).7 + O q 1 d s s H . I ` T ` ( } ( H ",
"k , , a - o 1 Z 8 9 8 = 3 : , g x U ] o.......( ( [ M u , - z 7 # :X_.NXCX8X,X,X,X(.,X5X:XjXsXrX#   @ = : a & ( ~ _ I _ ( ( ( H ",
". c : a S s.s.6.s.s.5.Z a . k a u M / o.*.,.:.O.` / M x k - @ + _.0XNX{.R.{.{.,XzX9XqX].,X:X8X8XsX1X7 9 6 l & s ( [ _ ~ / G H s ",
"l 3 1 g.j.|.x.oX.XV.%X5.j.3 l = u h b _ *.*.o.( ' G , * a 8 X 0 8XqXT.<X,X<XqX<XzXnXDXSXhX0XR.8X:X4XsX5 9 X c c L I U L P s c a ",
"3 y.B.D.<.M.x.h.Q. X.XoX|.>.S , , > k K E ` ( R x a g , = 1 9 $XMX(.}.-X-XqXzXw.1.G.w.w.r.Y.U.bX:XBX2X1X0 1 = a i s m m M y c u ",
"s.n.B.oXZ.|..XtX%XtXoXs.g.B.>.l k t - 3 a 3 a k k > g t - 4 7 eXiX>XT.[.bXw.L.w.I.1.G.w.W.G.z.T.hX8XsXkX$ 4 3 a t p x k M , k < ",
"j.>.s.:.E ..O.g.x.9.#.XXXXn.g.b., u - : 3 k , a x > i - 4 @ $XpX-X5X].0X^.pXiX/./.P.nXbX=X=XrXU.C.BX8XkX6X$ 4 - t t i s u u - 6 ",
"` >.R K ....1.V.g.f.4.E E n.s.-., > g k , 3 a , t x * k 9 Z yXrXqX5X[.MX-X^.=XpXW.bXI.h.kXY.W.U.r.H.NX_.eX0 4 - t i i i t y u 6 ",
"Z o.R Y E Y O.j...g.B...X.p.>.>.x > k x : - x t y x u 3 O .XdX0X8XwXbXF.qX0.U.(.7X@XL.K.NX6XY.Y.H.H.R.CX8XyX5 6 a d a i u y 6 6 ",
"* a $.o.E ( P W O.B.4.Y o.*.$.- , , , - , t s h j > b - O dXpX-XwXqXSXT.Y.qX0X:X_.(.(.4Xr._.aXC.F.H.t.NX6X1X  6 a d i i i g 6 < ",
"k 3 k . : $.$.P -.-.o.3.m.I c u > v > * b k * p p ; g - w Q.iX].:XbXDXJ.H.Y.T.T.8XG.5XsXY.Y.8.sXjX6XJ.^.CX6Xw 6 3 t t u u u - 6 ",
"* x % b ] L c c ( [ ( : * k M { ] ] v * k i ; j y i , 3 2 rXhX(.].R.nXG.R.G.bXY.T.8XY.r.jXr.0.0.l.uXsXU.kX2X7 D 3 t t t u a 8 < ",
"i x u ~ } * ; ( $.H M s i L L &.i.;.U g ; t p h j h t - X 6X7X].-XpX;XI.^.pX^.r.mX_.W.l.sX!.v.h.9.Q.6XY.mXaX0 w Z l a p u a u - ",
"k ; M M i x m ( u M u x , M &.;.;.I I L , g M i j y , 8 q q _.*X(./.nX1.U.bXG./.7Xz.7XyXeXQ.h.v.d.P.v.$XaX6X0 Q T J c s u u g < ",
", u , u i i i u r s r k L $.$.=.u.H L ' > L B > g u - O 9 # eXsXU.{.pXnXw.I.pXpXP.v.E.;X!.d.c.l.h.w.l.c.uX3XO D ) ~ L x > , , , ",
", 3 u u t u i i N N ; t c >.-.-.S.m x M ~ x n x M y a 3 1 D `.jXG.-X0X7Xl.L.h.=XP.P.x.Q.OXE.E.c.w.L.q.v.fX- 8 , v b M b g g g u ",
"3 , u , u u p j ; y i x C a.{ ;.%.^ ( M ) 6 > C v h t a 8 + @ $XvXF.G.vXMX9.9./.;XP.l.v.q.@XfXr.K.l.K.#XfX1 . k , g x k g k u , ",
"t 3 u a u y y i v j h h M { { ;.;.;.^ G L ) B V V V r r n - + yXhX^.Y.iXhXw.8. .-X+XC.q.0.r./.gXU.9.q.NX2 9 8 > , g y y , , , k ",
"a a u u u u i y h * j ; B { -.;.a.5.] ] B ) v j p h N h g 6 o O ).rX6X7XrXkX .8.J.@XT.8.G.0.0.-XW.!.ZXaX@ 1 l o g g > , , , , y ",
"t u , , u u 6 , < 6 n < 6 J ;.+.X.:.e.` D n ) v h i p r > g B 1 2 6X@X).2XrXNX8.F.Y.H.8.8.0.0.r.MXNXvXX 9 - X b y , g g i , , , ",
"i u u a , 8 3 1 6 @ + D 5 9 @.#.#. .#.w Q 0 [ n N N N h x > . 8 O 2 %XyX2X2XjXkXR.R.T.J.L.w.G.VXAXdXD W 1 z 8 % , , , g k u , g ",
"i i y g - 1 1 @ 5 5 e fXNXmXvXpXiXiXNXkXkXQ Q U s r p i % M k - 3 4 1 3X1X6X@X@X_.(.mXMXbXZXVXbXgX#.D | K = 8 k k u , g y , , g ",
"p r h > 6 @ 5 e MXMXhXwXDXVX9XzX7X0XiXNXkXCXT Q x t t t a a * - s = a 3 @ #X6XuXjXdXjXNXvXgXbX2 2 T X.X.Q D k 8 , > , g , , > u ",
"h x > n o ! MXvXqX}.zXDXDXcXnX}.}.'.9X5XSXCXe Q R u d k , k 3 3 f d : S = O + $X$XaXaXkX&X| S X 4 3 O 3 _ &._ b k g y , u , , , ",
"y * * D @ jXwX<X<X'.zXSXcXcXcXzX<X'.>XqXAXMXF 9 o.3 i c * , 8 6 : H f & = A + 9 @ O 7 Q | W E H : 8 3 , k k v M v g , u u , , y ",
", n o 7 NXBX,X'.<XcXcXDXcXcXzXzXzX'.T.hXsXMXF Z R : t s - < 8 D 4.} m G b - - 4 9 - 9 1 = H Y A 3 8 6 , , - , k k , , y k g u u ",
"6 O 7 gXrX8X'.lXlXDXDXxXVXzX{.}.'.[.bXwXCXAXD T b s i i s : 6 &.2.b.%.G c : 3 - * l 8 * k , . v u k > - x n u , y , , u g g g > ",
"+ 0 w mXhX<X<X,XcXcXSX<XqX9X0X].{.hXbXgXmXw D D u m p r h t g 7.%.2.2.] H a x ; k g > , b v > j > k k > > , , , , , , u , , > g ",
"# $ mXhX8XwXZXSXcXxXBX<X{._.rX*X*XjXmXF 5 + 9 > p i i p p y 6 _ 3.4.u.[ % * x k g > v j % > v < > h g * , k n y k , 6 u , , g v ",
"5 e mXAXSXcXSXxXcXcXwXwX/.W.c.~.1XdX|  .Q 6 8 y i r i N j y < k / 2.R 3 a c . k < h > j h > j j h ~ ~ v y t , , u u g y > < g B ",
"5 e NXBXSXAXAXcX<XqX}.0X_.8.r.v.x.aXT Y ` = t k i i i i y g , 6 * , , k 9 O l 1 = n * * v j j y V L { . m r i i t m ; r g 6 < U ",
"5 $ mXsXBXxXVX<X<XzX9X(.pX4Xv.d.tX9 3 Y I ] a : u u , u 6 > g y g b . K 1 0 0 q q + z 3 j * y C v v g v ; h i & i ; m _ { g 6 J ",
"@ ! kXwXwX<XcX<XxX9XF.^.+X=XmXgX-.  l A A I c s u t u u y u y 6 < X 0 yXgXdX!.eX3X2 7 8 6 g h * r x * j a ; x G m t ~ { ) 6 B U ",
"7 ).jXwX,X,XwXwX9XF.^.8.l.dX| D 1 z 3 : P G L a u u u u y 6 6 6 9 F fX$XmXeXW./.K.eXoXD o g > v , b * * L - % % a I R I j B U ) ",
"5 mX6XsX(.H.<X<X<X>XU.l.c.yXO | Y k z : G P A , u t , g u 6 y - Z gXuXvX/.W.hX/.w.c.!. XZ , , , g u s 3 . A Z n * Q U b B ] U V ",
"# yXiXsXR.t.,XH.-X].+XQ.;XO 9 E o.P K 3 u b b k u a u , u u , 3 dX/.q.W.vX7X/.r.9.q.d.~.1 - , < 3 : c : A O.@.#.Z T A - ] _ C j ",
"2 #XdX6XY.t.T.H.4X/.!.%XT Y 3 - U &.c : k G M * u u u , , 6 , 3 #XQ.J.J.U.w.w.+XiX9.9.OXO < b k a : = K  XZ.:.@.#.T D z [ b j h ",
"2 yXdX).t.z.8.U.@XeXtXfXo.D n = 3 R I J = a k k , , u u y , , 3 !.h.9.q.+Xl.l.K.c.N..Xj.= k * , t a 4 |. X#X$XaX7.! T +.U x h ^ ",
"@ 4 dX1Xl.t.9.r.dXS q ..W o.n g a u J U a : k t k , k , > k , , x.c..XOX.X~.Q.k.k.V. X- b k ; y t d l oX.X`.#X1XjX! | 6.7.- / I ",
"4 4 OXkX~.A.C.k.&XW K c ( ^ L t k , G L a - g - t * g k k g * , l .XZ.9.$XM.j.%XoXoX] R v L > h s X 1  X!.!.`.6XuX .7.:.Q l [ M ",
"4 O D %X1X XZ.3Xl S S P ' %.) k i * a x , , k - 6 - k 8 , u - k l o = aXkXtXoX%XA Q l x g V V V c = K ~.c.E.K.+X8XU.9.9.:.Z 5.>.",
"3 a X 8 9 OXoX8 O c m H t [ ~ ) c , t u , u g , < k g * * k g , . b c 3 U - G ` < k ] g p r ; > 3 Z n.N.d.c.J.W.=X6X).uX1X:.| :.",
": c 3 = - 7 - - b t %.m ; i I { ^ m k k u , 6 , , k 8 , k x k - b * J ] 3 k c / c a x I i x > M % z %Xj.c.l.P.I.W.K.7X7XeXeX:.| ",
"x . k k 6 8 n = : & %.} s m h I ^ V k u t , , u 8 < * < , * a a * y { * k * 3 L J / k / g > y * 1 4 3Xx..XP.P.w.I.L.K.K.z.eXjXF ",
"r k v * 8 : = k s M } ^ ; x % x m h t , u , , n - b z n k a c : , U L , a b . 3 - P J A J > J * 9 8 D.A.#XQ.W.L.U.].J./.c.Y.rX! ",
"k i * k k - , t t ^ ^ d N t i g t g u t k , - k A i.m.i.-.5.<.s c * i P - a c = k , k 3 b , , g 6 6 Z.~.#X=X=X(.-XL.(.J.W.Y.v.uX",
"M H A G J k * a u u u u g u g 6 6 k * k k k b b.b.f.m.b.b.g.,.3.4.: c : a a * a a , k , u , u 6 8 = Z x.eXrX0X[.{.[.L.W.P.j.V.XX",
"c ( o.' R G a k u d u g g y g y < 6 6 , G m.u.i.( ] ( O.<.g.b.,.*.4.b - l t a a , u , , 6 u , , t x : N.z.4X0XwX[.[.].=Xh.h.|.b.",
"H %.2.$.' ( G a a a u u g u , g > n , k m.i.R ' ( E K P E ( =.f.4.4.] H % a u - u u , u y g y u s % S S #XW._.bXnX>X].-XP.P.V.V.",
"E *.2.$.$.{ ~ k u u 6 u , g y 6 k o , a.m.[ I ^ ^ ^ $.( / / Y o.f.>.4.>.c s 3 s u , g , y , g u r m . = !.K._.].MXvX8X_.OXP.1.V.",
"$.%.3.-.%.$./ b u a , u g g g , 3 - P b./ ( I ~ Y P L J I ' [ K ( f.%.4.-.& a a t u u , 6 u y u s u s 3 4 Q.E.U._.sXkX8X@X@Xe.C.",
"$.*.a.u.=.' / J , u g g g , > g 3 s u.I / { M H ^ ^ x [ o.P ' [ R $.2.2.>.M k % 3 u u u u u , u i i k - = Z v.OX).R.2XsX6X_.C.C.",
"$.%.>.>.[ R U b a u g , , g g g A : i.[ =.=.4.~ H P &.i.a._ V / o.K f.4.*.=.G : u u , u u , y 6 i ; y , 3 3 Z E.~.~.~.1X).C.e.e.",
";.o.] [ L L B , a 6 u , g , g , s =.P ' -.2.;.$.( P m.I I m.U [ R ..( =.>.&.l , 3 3 3 u u , u , k , k k - 3 = 4 7 D.D.C.x.x.e.k.",
"I I P G b k a , k k , k - k * a.>.o.} ( <.4.*.3.-.2.m.b U a.2./ / R R b.,.>.>.A x A n x J < b g 6 > 6 g : c : a k - 4 = V.x.M.j.",
"G b b l k a u , * , % , h > U S.S.3.( 4.%.>.u.>.-.a.=.[ I 2.2.] Y ..` V.>.j. Xf.Z.n.B.=.*.n.-.b n A k < 3 a : u d s t & H a 3 8 ",
", 6 k , , , , , k , k n < 6 S.a.b.b.*.4.<.%.Y f.i.-.K U I u.m.4.O.W F N.,.B.|.B.M.o.y.f.*.-.:.u.B.f.z A & k k t r m t s & t & d ",
", - , < , 3 6 , k < k k * g m.n / D.%.*.Y P b.Y Y P U G _ 2.4.W x.Q #.&XP.E.g.j.V.V.|.V.y.*.j.5.M.j.n.B.G : k y d x t m t m s c ",
", , , 3 3 , g 8 u - * , k < 3 = E s.O.R K K s.K Q [ s.+.,.3.O.E ,.| &XtX.Xv.d..X,.g.g.<.oXN.|.4.-.+.D.Z.i.B 6 k k r ; g t s u * ",
", u u 6 , 6 , , - k 3 k g k * k ( ( f.S Y R R M.s.>.5.-.g.,.^ O.F 1.pX&XN.v.c.&XP.+.<.#.oXg.<.S.5.5.+.i.D.i.< g 6 > 6 6 y , k a ",
"6 g , , , , , , * , k k . 3 k - a ..s...K X.~.s.x.j.g.5.XXb.E W W /.+XP.v.P..XP.h.1.1.O.,.,.<.P.O.b.*.|.M.B.8 - 6 g 6 6 6 < * , ",
", - , , , k , 6 g k = , c 3 : k 3 Y ( y.M.x.M.M.5.M.x.Y b.Y Y S F =Xl.l.h.9.P.9.d.h.O.#.<.h.h.O.<.O.,.g.f.s.i.6 6 6 < 6 < 6 < 6 "
};
